# xmcd CD database file
#
# Track frame offsets:
#	150
#	4840
#	25074
#	43690
#	70342
#	97547
#	111112
#	128556
#	144092
#	172051
#	191731
#
# Disc length: 2746 seconds
#
# Revision: 6
# Processed by: cddbd v1.5.1PL2 Copyright (c) Steve Scherf et al.
# Submitted via: CDex 1.51
#
DISCID=870ab80b
DTITLE=Yngwie J. Malmsteen - Marching Out
DYEAR=1985
DGENRE=Rock
TTITLE0=Prelude
TTITLE1=I'll See The Light Tonight
TTITLE2=Don't Let It End
TTITLE3=Disciples Of Hell
TTITLE4=I Am A Viking
TTITLE5=Overture 1383
TTITLE6=Anguish And Fear
TTITLE7=On The Run Again
TTITLE8=Soldier Without Faith
TTITLE9=Caught In The Middle
TTITLE10=Marching Out
EXTD=YEAR: 1985
EXTT0=
EXTT1=
EXTT2=
EXTT3=
EXTT4=
EXTT5=
EXTT6=
EXTT7=
EXTT8=
EXTT9=
EXTT10=
PLAYORDER=
